# xmcd
# Track frame offsets:
# 150
# 18657
# 36384
# 53843
# 76768
# 98824
# 114660
# 130894
# 141343
# 162211
# 178239
# 193460
# 209964
# 226125
# 245433
# 265757
# 281519
# 301511
# 320453
#
# Disc length: 4543 seconds
# Revision: 0
# Processed by: cddbd v1.5.2PL0 Copyright (c) Steve Scherf et al.
# Submitted via: VisiTrax 2.10.3.257 - For more info visit www.synapsa.com
#
DISCID=1511bd13
DTITLE=Chris Rea - The Works CD1
DYEAR=2007
DGENRE=Pop
TTITLE0=Fool (if you think it's over)
TTITLE1=Josephine
TTITLE2=Stainsby girls
TTITLE3=On the beach
TTITLE4=Diamonds
TTITLE5=I can hear your heartbeat
TTITLE6=I don't know what it is but I love it
TTITLE7=No qualifications
TTITLE8=Sweet kiss
TTITLE9=Runaway
TTITLE10=Every beat of my heart
TTITLE11=Love's strange ways
TTITLE12=The things lovers should do
TTITLE13=Nothings happening by the sea
TTITLE14=Ace of hearts
TTITLE15=Touché d'amour
TTITLE16=Stone
TTITLE17=Love turns to lies
TTITLE18=One golden rule
EXTD=
EXTT0=
EXTT1=
EXTT2=
EXTT3=
EXTT4=
EXTT5=
EXTT6=
EXTT7=
EXTT8=
EXTT9=
EXTT10=
EXTT11=
EXTT12=
EXTT13=
EXTT14=
EXTT15=
EXTT16=
EXTT17=
EXTT18=
PLAYORDER=
